<svg xmlns="http://www.w3.org/2000/svg" width="181" height="40" viewBox="0 0 181 40">
  <g id="Group_23" data-name="Group 23" transform="translate(-732 -192)">
    <rect id="Rectangle_9" data-name="Rectangle 9" width="181" height="40" rx="2" transform="translate(732 192)" fill="#0078b5"/>
    <text id="Sign_in_with_linkedin" data-name="Sign in with linkedin" transform="translate(777 217)" fill="#fff" font-size="12" font-family="Lato-Regular, Lato"><tspan x="0" y="0">Sign in with linkedin</tspan></text>
    <path id="linkedin" d="M21.085,0H1.639A1.639,1.639,0,0,0,0,1.639V21.085a1.639,1.639,0,0,0,1.639,1.639H21.085a1.639,1.639,0,0,0,1.639-1.639V1.639A1.639,1.639,0,0,0,21.085,0ZM8.061,17.176H5.293V8.851H8.061ZM6.677,7.714H6.659A1.442,1.442,0,1,1,6.7,4.838a1.443,1.443,0,1,1-.018,2.877Zm11.361,9.462H15.272V12.723c0-1.119-.4-1.883-1.4-1.883a1.515,1.515,0,0,0-1.42,1.012,1.9,1.9,0,0,0-.091.675v4.649H9.592s.036-7.544,0-8.325h2.767V10.03a2.747,2.747,0,0,1,2.494-1.374c1.821,0,3.186,1.19,3.186,3.747Zm0,0" transform="translate(741 201.275)" fill="#fff"/>
  </g>
</svg>
