<svg id="Group_21" data-name="Group 21" xmlns="http://www.w3.org/2000/svg" width="561.166" height="585.048" viewBox="0 0 561.166 585.048">
  <g id="back" transform="translate(0 39.327)">
    <path id="Path_1" data-name="Path 1" d="M940.254,1386.716c-84.893,1.936-108.809-104.137-99.983-171.031,1.086-8.225,2.9-16.539,7.192-23.64,8.529-14.111,26.853-15.266,38.056-26.761,18.863-19.355,14.581-52.79,17.4-77.371,6.186-54,56.072-63.309,101.151-46.763,6.046,2.219,12.132,4.945,18.572,4.871,23.293-.268,45.079-30.361,60.331-44.983,16.346-15.671,35.276-31.464,59.249-30.927,25.744.577,46.852,20.1,63.266,39.939,17.427,21.065,35.1,45.156,61.8,54.749,23.192,8.334,54.275,6.052,70.582,27.708,16.387,21.762,4.824,52.781,8.682,79.749,3.4,23.783,18.857,43.764,29.784,65.16,15.8,30.939,35.44,92.529,7.592,121.672-8.886,9.3-20.908,15.1-33.286,18.595-29.88,8.44-61.862,4.288-92.089-2.813-18.7-4.394-36.793-11.2-55.647-14.983-20.108-4.04-38.31-2.028-58.62-.2-34.283,0-69.743,6.269-103.908,9.34-32.772,2.946-63.867,15.645-96.458,17.541Q942.067,1386.675,940.254,1386.716Z" transform="translate(-836.769 -970.099)" fill="#b6e2ff" opacity="0.58"/>
    <g id="Group_1" data-name="Group 1" transform="translate(99.088 279.992)">
      <rect id="Rectangle_1" data-name="Rectangle 1" width="314.955" height="257.241" transform="translate(0 6.283)" fill="#f7df96"/>
      <path id="Path_2" data-name="Path 2" d="M1764.563,2157.919c26.5,5.848,55.034,6.5,80.654-3.127q2.535-.953,5.027-2.012c-12.537,15.126-11.574,36.868-10.911,56.5.772,22.869.251,45.76-.271,68.636-.178,7.819-.371,15.735-2.49,23.264-4.882,17.341-19.793,32.457-17.624,50.341,1.287,10.612,10.109,24.132,19.543,29.158,0,0,19.684,0,30.263.122.114-31.551-.135-62.113-.02-93.663.071-19.748.144-39.52,1.739-59.2,1.584-19.544,4.662-38.933,7.738-58.3l8.12-51.123-28.539,2.429c-13.194,1.122-26.415,2.246-39.654,2.035-14.318-.229-28.559-2.016-42.825-3.26-24.209-2.11-25.362-2.222-49.649-2.561-4.49-.063-16.574,3.881-20.613,6.282h-20.909c5.325,3.795,10.782,7.418,16.391,10.78a140.878,140.878,0,0,0,18.787,8.963,280.212,280.212,0,0,0,40.932,13.734l.84.2Q1762.82,2157.535,1764.563,2157.919Z" transform="translate(-1630.654 -2117.159)" fill="#dbb85e"/>
    </g>
    <g id="Group_2" data-name="Group 2" transform="translate(0 262.339)">
      <path id="Path_3" data-name="Path 3" d="M2485.19,2820.19a156.01,156.01,0,0,0-1.648,22.721c0,27.494,7.012,52.214,18.175,69.319h74.1c11.162-17.1,18.175-41.824,18.175-69.319a156.082,156.082,0,0,0-1.646-22.721Z" transform="translate(-2434.36 -2630.93)" fill="#8fade0" fill-rule="evenodd"/>
      <path id="Path_4" data-name="Path 4" d="M2483.542,2912.229c27.932-16.091,47.744-51.01,49.448-92.04h13.717a156.082,156.082,0,0,1,1.646,22.721c0,27.494-7.012,52.214-18.175,69.319Z" transform="translate(-2388.723 -2630.93)" fill="#809bc9" fill-rule="evenodd"/>
      <path id="Path_5" data-name="Path 5" d="M2483.25,2235.877c-8.374-19.457-32.4-69.079-68.047-91.471,0,0,40.267,13.234,50.622,28.766,0,0-2.246-14.211-9.054-25.689,0,0,23.149,11.883,31.778,34.6,0,0-14.96-108.433-29.917-134.9,0,0,36.239,42.568,48.895,127.706,0,0,.578-55.8,18.408-89.165,0,0-4.025,81.688,2.878,92.618,0,0-.288-46.6,21.284-76.8,0,0-9.491,52.062-6.328,67.881,0,0,5.467-12.656,15.245-19.847,0,0,3.738,24.735-4.6,39.693,0,0,11.218-15.82,37.1-23.011,0,0-14.952,42.875-35.243,69.608Z" transform="translate(-2415.203 -2046.617)" fill="#206515" fill-rule="evenodd"/>
      <path id="Path_6" data-name="Path 6" d="M2538.733,2058.07s-20.71,128.279-47.747,176.028h-47.457s8.915-83.412-22.436-118.215c0,0,31.639,31.063,41.417,69.6,0,0-9.2-96.067,24.447-140.65,0,0-12.657,62.125-1.726,125.692Z" transform="translate(-2363.858 -2044.837)" fill="#809b64" fill-rule="evenodd"/>
      <path id="Path_7" data-name="Path 7" d="M2524.78,2236.563s21.215,98.236,48.913,134.8h48.617s-9.135-63.878,22.985-90.528c0,0-32.412,23.788-42.431,53.3,0,0,9.43-73.569-25.044-107.709,0,0,12.968,47.575,1.769,96.254Z" transform="translate(-2495.73 -2182.104)" fill="#305811" fill-rule="evenodd"/>
    </g>
  </g>
  <g id="man" transform="translate(133.104 0)">
    <g id="Group_3" data-name="Group 3" transform="translate(235.122 225.481)">
      <path id="Path_8" data-name="Path 8" d="M1378.81,1737.158a.843.843,0,0,1,.58-.282c.106-.377.166-.113.658-.043,5.386.756,10.837,1.714,16.324,1.235,4.858-.43,8.521-4.06,13.164-5.019,7.918-1.632,14.735,3.253,19.986,8.733,2.07,2.159,8.7,9.62,8.288,11.945-.683,3.9-7.692-1.457-9.052-2.655-1.161-1.026-8.406-9.714-8.272-3.115.036,1.673.287,4.8-1.267,5.9-7.394,5.217-17.939-.891-26.179.072-5.163.609-13.752,2.548-16.448-3.48C1375.33,1747.622,1376.664,1739.43,1378.81,1737.158Z" transform="translate(-1376.103 -1732.73)" fill="#e0ac92"/>
    </g>
    <g id="Group_6" data-name="Group 6" transform="translate(91.256 48.82)">
      <path id="Path_11" data-name="Path 11" d="M1597.28,1040.975c3.744-8.2,30.208-33.928,31.166-31.867,9.638,20.724-.043,156.381-2.49,169.893,11.525-.957,103.733,11.592,103.733,11.592l-1.1,17.068s-134.068,26.285-148.829,5.457c-4.83-6.816-4.309-16.474-5.153-24.7-1.244-12.121-2.33-24.268-2.657-36.45C1570.95,1114.708,1581.787,1074.887,1597.28,1040.975Z" transform="translate(-1571.886 -1008.99)" fill="#3d8dc4"/>
    </g>
    <g id="Group_8" data-name="Group 8" transform="translate(132.277 19.049)">
      <path id="Path_13" data-name="Path 13" d="M1642.078,933.755a1.771,1.771,0,0,1-.48-2.669c5.836-7.714,11.925-15.316,19.46-21.447a2.055,2.055,0,0,1,2.038-.44,37.666,37.666,0,0,0,14.38,3.341c8.95.371,8.427-6.69,8.027-13.005a11.9,11.9,0,0,1,11.437-12.508c17.6-.207,30.23,20.771,43.088,29.96a2.1,2.1,0,0,1,.277,3.257c-5.555,5.674-20.112,25.142-32.435,28.963-8.949,2.773-22.829.815-29.71-6.3-6.382,6.623-16.144,14.866-21.8,17.344C1641.107,966.93,1639.448,941.5,1642.078,933.755Z" transform="translate(-1641.054 -887.025)" fill="#eecaad"/>
    </g>
    <g id="Group_9" data-name="Group 9" transform="translate(144.013)">
      <path id="Path_14" data-name="Path 14" d="M1477.367,841.563c7.966-12.407,16.3-20.991,26.653-27.47,11.862-7.418,21.577-6.619,32.909,1.514A88.307,88.307,0,0,0,1564.12,828.8c8.948,2.724,23.369,1.508,30.894,7.219,8.221,6.233,7.844,24.1-2.71,31.124-16.374,10.9-31.407-3.591-42.415-14.9-5.631-5.785-11.536-12.1-18.4-16.684-2.734,4.621-5.454,9.239-8.6,13.6-4.526,6.278-7.412,12.983-.11,18.508,4.174,3.159,15.945,14.7,15.945,14.7a80.3,80.3,0,0,1-10.528,10.394c-6.837,5.326-13.948,10.877-21.724,9.013-16.89-4.05-9.109-22.783-3.539-33.4q4.229-8.057,8.514-16.091c3-5.643,10.382-19.792,11.357-21.244-8.384-3.014-21.366-1.905-15.019,10.729.346.69-1.77,12.022-14.63,17.074-6.081,2.386-9.984,3.263-16.008,2.987C1466.027,861.316,1472.786,848.7,1477.367,841.563Z" transform="translate(-1471.101 -808.987)" fill="#030744"/>
    </g>
    <g id="Group_10" data-name="Group 10" transform="translate(178.424 481.507)">
      <path id="Path_15" data-name="Path 15" d="M1760.118,2812.17l14.66,3.462c4.541-12.612,10.464-23.174,10-33.5-3.848.139-4.826-.924-8.707-.369-5.1.637-5,2.727-6.882,8.952Z" transform="translate(-1760.118 -2781.605)" fill="#e0ac92" fill-rule="evenodd"/>
    </g>
    <g id="Group_11" data-name="Group 11" transform="translate(10.82 253.699)">
      <path id="Path_16" data-name="Path 16" d="M1417.86,1850.662c.642.016,1.285.016,1.928.028.183-.024,184.455-3.05,207.723-2.216,18.318.655,40.814,3.7,56.63,13.626,10.781,6.766,9.073,20.49,8.921,31.529-.427,31.147-88.809,205.094-88.809,205.094l-14.188-4.4s.933-45.252,1.958-64.847c.693-13.282,7.559-82.281,22.721-98.982-9.488,3.673-79.18,17.028-129.867,7.983C1419.3,1926.77,1415.146,1850.6,1417.86,1850.662Z" transform="translate(-1417.27 -1848.329)" fill="#311194"/>
    </g>
    <g id="Group_12" data-name="Group 12" transform="translate(163.367 505.455)">
      <path id="Path_17" data-name="Path 17" d="M1759.844,2887.047c-4.348,42.12,10.944,34.338,16.542,70.767-11.235.333-4.292,7.583-23.378-13.163-9.132-10.06-13.3-16.523-23.5-23.018-3.2-20.234,11.479-25.569,17.379-41.917-.288.8,2.989,2.106,13.587,7.664Z" transform="translate(-1729.058 -2879.715)" fill="#501b9b" fill-rule="evenodd"/>
    </g>
    <g id="Group_13" data-name="Group 13" transform="translate(12.831 250.617)">
      <path id="Path_18" data-name="Path 18" d="M1442.152,1854.906c2.062-5.531,9.786-6.821,14.693-7.528,12.3-1.774,25.252-2.569,37.226-5.965a135.1,135.1,0,0,1,35.5-5.453c27.563-.746,55.484.274,83.037,1.229a370.237,370.237,0,0,1,39.739,3.843c8.339,1.2,19.776,1.446,27.407,5.613,2.483,1.354,31.075,2.618,29.578,5.2-3.059,5.281-39.134,2.243-42.652,2.049-13.676-.754-27.946-.805-41.63-.3-13.912.512-25.658,7.78-38.952,11.049a123.049,123.049,0,0,1-33.655,3c-11.648-.525-29.158-8.966-39.239-1.715-7.478,5.377-19.394,3.736-27.659,2.188a37.553,37.553,0,0,0-24.634,3.626c-4.3,2.348-14.493,5.818-14.775,4.918C1443.915,1869.561,1439.38,1862.342,1442.152,1854.906Z" transform="translate(-1441.281 -1835.703)" fill="#35126f"/>
    </g>
    <g id="Group_14" data-name="Group 14" transform="translate(0 54.289)">
      <path id="Path_19" data-name="Path 19" d="M2052.63,1124.878c12.379-18.192,28.275-34.11,43.93-49.463,16.721-16.4,42.016-32.173,62.264-43.992,1.846-1.078-1.64,30.2-6.268,41.827-5.358,13.458-10.393,27.015-14.7,40.848-4.125,13.249-7.432,26.74-11.57,39.983-4.657,14.9-10.228,29.485-14.508,44.51-4.512,15.833,2.6,39.379-15.973,46.436-9.32,3.542-24.706-.8-34.288-1.579-14.712-1.192-20.6,2.648-32.068,11.647-2.617,2.052-10.267-4.087-9.9-9.673C2022.364,1202.921,2028.981,1159.628,2052.63,1124.878Z" transform="translate(-2019.539 -1031.395)" fill="#7bcaff"/>
    </g>
    <g id="Group_15" data-name="Group 15" transform="translate(59.445 105.418)">
      <path id="Path_20" data-name="Path 20" d="M2177.257,1332.525c-3.615-22.938,42.057-92.45,41.69-91.659-6.614,14.21-15.847,56.571-16.956,69.559-1.1,12.85.073,65.517,3.726,78.455C2206.119,1390.3,2182.287,1364.464,2177.257,1332.525Z" transform="translate(-2177.053 -1240.859)" fill="#3d8dc4"/>
    </g>
    <g id="Group_18" data-name="Group 18" transform="translate(179.184 174.492)">
      <g id="Group_16" data-name="Group 16" transform="translate(132.113 0)">
        <rect id="Rectangle_2" data-name="Rectangle 2" width="9.091" height="115.995" transform="translate(6.312 87.086) rotate(-133.978)" fill="#030744"/>
      </g>
      <g id="Group_17" data-name="Group 17" transform="translate(0 70.707)">
        <path id="Path_21" data-name="Path 21" d="M1237.731,1831.684l133.243,3.386,18.2-17.723-150.979-3.837Z" transform="translate(-1237.731 -1813.51)" fill="#030744"/>
      </g>
    </g>
    <g id="Group_19" data-name="Group 19" transform="translate(227.428 227.139)">
      <path id="Path_22" data-name="Path 22" d="M1407.031,1749.067a.834.834,0,0,1,.532-.364c.05-.388.147-.136.645-.14,5.439-.047,10.971.094,16.327-1.194,4.74-1.141,7.827-5.27,12.279-6.905,7.589-2.786,15.054,1.039,21.057,5.682,2.367,1.829,10.024,8.229,9.963,10.589-.1,3.958-7.823-.3-9.347-1.288-1.3-.842-9.75-8.366-8.64-1.86.282,1.653.994,4.709-.38,6.027-6.542,6.25-17.876,1.768-25.881,3.939-5.018,1.362-13.226,4.552-16.783-1.012C1405.136,1759.932,1405.244,1751.632,1407.031,1749.067Z" transform="translate(-1405.618 -1739.52)" fill="#eecaad"/>
    </g>
    <g id="Group_20" data-name="Group 20" transform="translate(82.726 54.199)">
      <path id="Path_23" data-name="Path 23" d="M1632.227,1063.011c3.744-8.2,30.208-33.928,31.166-31.868,9.638,20.722-.043,156.38-2.49,169.9,11.526-.958,103.733,11.59,103.733,11.59l-1.1,17.069s-134.069,26.284-148.83,5.455c-4.83-6.815-4.309-16.474-5.152-24.7-1.245-12.119-2.331-24.268-2.657-36.45C1605.9,1136.745,1616.735,1096.925,1632.227,1063.011Z" transform="translate(-1606.834 -1031.027)" fill="#7bcaff"/>
    </g>
  </g>
</svg>
