<svg xmlns="http://www.w3.org/2000/svg" width="608.283" height="619.76" viewBox="0 0 608.283 619.76">
  <g id="Group_30" data-name="Group 30" transform="translate(0)">
    <g id="Group_25" data-name="Group 25" transform="translate(0 308.096)">
      <path id="Path_26" data-name="Path 26" d="M516.631,604.254a.8.8,0,0,1,.668-.945h0a.8.8,0,0,1,.93.668h0a.789.789,0,0,1-.653.93h0a.49.49,0,0,1-.147.015h0A.8.8,0,0,1,516.631,604.254Zm-.865-4.81a.8.8,0,0,1,.651-.945h0a.814.814,0,0,1,.947.651h0a.814.814,0,0,1-.651.947h0a.446.446,0,0,1-.147.017h0A.807.807,0,0,1,515.766,599.443Zm-.93-4.777a.8.8,0,0,1,.637-.961h0a.815.815,0,0,1,.961.637h0a.838.838,0,0,1-.651.961h0c-.05,0-.1.015-.163.015h0A.8.8,0,0,1,514.836,594.666Zm-.995-4.777a.822.822,0,0,1,.62-.978h0a.8.8,0,0,1,.961.637h0a.81.81,0,0,1-.618.961h0a.658.658,0,0,1-.18.017h0A.8.8,0,0,1,513.841,589.889Zm-1.06-4.777a.809.809,0,0,1,.62-.978h0a.809.809,0,0,1,.961.62h0a.808.808,0,0,1-.6.978h0a.7.7,0,0,1-.178.017h0A.821.821,0,0,1,512.782,585.112Zm-1.125-4.746a.81.81,0,0,1,.6-.978h0a.8.8,0,0,1,.978.589h0a.822.822,0,0,1-.586.993h0a.686.686,0,0,1-.195.019h0A.82.82,0,0,1,511.657,580.367Zm-1.173-4.727a.81.81,0,0,1,.586-.995h0a.8.8,0,0,1,.978.586h0a.813.813,0,0,1-.572.993h0a.86.86,0,0,1-.211.019h0A.8.8,0,0,1,510.484,575.64Zm-1.257-4.729h0a.82.82,0,0,1,.572-.995h0a.837.837,0,0,1,1.009.57h0a.836.836,0,0,1-.586,1.012h0a.832.832,0,0,1-.211.017h0A.8.8,0,0,1,509.228,570.911Zm-1.3-4.7a.824.824,0,0,1,.555-1.012h0a.818.818,0,0,1,1.01.572h0a.821.821,0,0,1-.553,1.009h0a1.047,1.047,0,0,1-.228.017h0A.807.807,0,0,1,507.923,566.216Zm-1.37-4.681a.817.817,0,0,1,.538-1.011h0a.828.828,0,0,1,1.028.538h0a.8.8,0,0,1-.555,1.011h0a.62.62,0,0,1-.228.048h0A.8.8,0,0,1,506.554,561.535Zm-1.435-4.662h0a.82.82,0,0,1,.538-1.028h0a.815.815,0,0,1,1.011.538h0a.791.791,0,0,1-.521,1.009h0a.64.64,0,0,1-.245.05h0A.823.823,0,0,1,505.119,556.873Zm-1.5-4.649h0a.823.823,0,0,1,.521-1.026h0a.807.807,0,0,1,1.026.521h0a.8.8,0,0,1-.521,1.028h0a.648.648,0,0,1-.243.031h0A.82.82,0,0,1,503.62,552.224Zm-1.55-4.614v-.017a.807.807,0,0,1,.507-1.026h0a.807.807,0,0,1,1.026.5h0a.812.812,0,0,1-.488,1.045h0a1.569,1.569,0,0,1-.279.032h0A.81.81,0,0,1,502.07,547.611ZM500.457,543a.807.807,0,0,1,.488-1.043h0a.823.823,0,0,1,1.043.488h0a.82.82,0,0,1-.488,1.045h0a.947.947,0,0,1-.279.048h0A.787.787,0,0,1,500.457,543Zm-1.682-4.582h0a.8.8,0,0,1,.473-1.043h0a.8.8,0,0,1,1.045.471h0a.8.8,0,0,1-.473,1.045h0a1.028,1.028,0,0,1-.276.065h0A.811.811,0,0,1,498.776,538.415Zm-1.742-4.549a.825.825,0,0,1,.454-1.06h0a.823.823,0,0,1,1.06.457h0a.825.825,0,0,1-.454,1.06h0a.908.908,0,0,1-.3.048h0A.833.833,0,0,1,497.033,533.866Zm-1.795-4.549a.817.817,0,0,1,.44-1.06h0a.811.811,0,0,1,1.06.456h0a.8.8,0,0,1-.44,1.06h0a1.1,1.1,0,0,1-.31.065h0A.8.8,0,0,1,495.238,529.318Zm-1.86-4.484a.792.792,0,0,1,.442-1.06h0a.8.8,0,0,1,1.06.425h0a.811.811,0,0,1-.442,1.074h0a.918.918,0,0,1-.308.065h0A.816.816,0,0,1,493.379,524.834Zm-1.906-4.467h0a.812.812,0,0,1,.423-1.076h0a.793.793,0,0,1,1.06.425h.017a.839.839,0,0,1-.423,1.074h0a.856.856,0,0,1-.327.065h0A.8.8,0,0,1,491.473,520.367Zm-1.973-4.45a.813.813,0,0,1,.406-1.079h0a.825.825,0,0,1,1.076.408h0a.819.819,0,0,1-.406,1.076h0a.9.9,0,0,1-.343.082h0A.792.792,0,0,1,489.5,515.917Zm-2.04-4.419a.839.839,0,0,1,.392-1.076h0a.821.821,0,0,1,1.093.392h0a.821.821,0,0,1-.392,1.091h0a.864.864,0,0,1-.343.067h0A.821.821,0,0,1,487.46,511.5Zm-2.086-4.387a.826.826,0,0,1,.392-1.093h0a.811.811,0,0,1,1.076.392h0a.8.8,0,0,1-.375,1.076h0a.676.676,0,0,1-.36.082h0A.822.822,0,0,1,485.375,507.11Zm-2.136-4.354a.817.817,0,0,1,.358-1.108h0a.821.821,0,0,1,1.093.375h0a.828.828,0,0,1-.358,1.091h0a.707.707,0,0,1-.36.082h0A.8.8,0,0,1,483.238,502.756Zm-2.218-4.337a.834.834,0,0,1,.358-1.108h0a.819.819,0,0,1,1.093.358h0a.809.809,0,0,1-.341,1.093h0a.817.817,0,0,1-.377.1h0A.836.836,0,0,1,481.021,498.419Zm-2.249-4.318a.808.808,0,0,1,.327-1.1h0a.822.822,0,0,1,1.108.327h0a.814.814,0,0,1-.343,1.11h0a.752.752,0,0,1-.375.1h0A.81.81,0,0,1,478.771,494.1Zm-2.331-4.272a.824.824,0,0,1,.325-1.11h0a.827.827,0,0,1,1.11.327h0a.825.825,0,0,1-.327,1.108h0a.783.783,0,0,1-.392.1h0A.83.83,0,0,1,476.44,489.829Zm-2.364-4.241h0a.8.8,0,0,1,.308-1.108h0a.806.806,0,0,1,1.11.293h0a.818.818,0,0,1-.31,1.11h0a.753.753,0,0,1-.408.113h0A.8.8,0,0,1,474.076,485.588Zm-2.431-4.222h0a.815.815,0,0,1,.279-1.108h0a.82.82,0,0,1,1.125.291h0a.809.809,0,0,1-.293,1.11h0a.768.768,0,0,1-.408.113h0A.813.813,0,0,1,471.645,481.366Zm-2.494-4.191v.017a.821.821,0,0,1,.279-1.127h0a.824.824,0,0,1,1.125.279h0a.816.816,0,0,1-.279,1.11h0a.819.819,0,0,1-.423.128h0A.81.81,0,0,1,469.15,477.175Zm-2.542-4.142h0a.817.817,0,0,1,.26-1.125h0a.818.818,0,0,1,1.127.262h0a.822.822,0,0,1-.262,1.125h0a.8.8,0,0,1-.423.13h0A.847.847,0,0,1,466.608,473.033Zm-2.593-4.124a.818.818,0,0,1,.245-1.127h0a.818.818,0,0,1,1.125.245h0a.814.814,0,0,1-.245,1.125h0a.761.761,0,0,1-.44.132h0A.789.789,0,0,1,464.015,468.909Zm-2.658-4.077a.812.812,0,0,1,.228-1.125h0a.82.82,0,0,1,1.141.228h0a.816.816,0,0,1-.245,1.125h0a.726.726,0,0,1-.44.13h0A.849.849,0,0,1,461.358,464.832Zm-2.708-4.059h0a.823.823,0,0,1,.23-1.127h0a.814.814,0,0,1,1.125.214h0a.83.83,0,0,1-.214,1.139h0a.812.812,0,0,1-.457.132h0A.809.809,0,0,1,458.65,460.773Zm-2.754-4.013a.794.794,0,0,1,.212-1.125h0a.8.8,0,0,1,1.125.195h0a.83.83,0,0,1-.195,1.143h0a.843.843,0,0,1-.473.145h0A.819.819,0,0,1,455.9,456.761Zm-2.806-3.977h-.015a.848.848,0,0,1,.195-1.141h0a.827.827,0,0,1,1.141.195h0a.814.814,0,0,1-.195,1.141h0a.811.811,0,0,1-.473.147h0A.777.777,0,0,1,453.09,452.784Zm-2.869-3.948v.019a.811.811,0,0,1,.18-1.141h0a.789.789,0,0,1,1.125.161h0a.806.806,0,0,1-.163,1.141h0a.792.792,0,0,1-.488.163h0A.8.8,0,0,1,450.221,448.836Zm-2.917-3.9a.809.809,0,0,1,.163-1.141h0a.807.807,0,0,1,1.139.163h0a.826.826,0,0,1-.161,1.141h0a.777.777,0,0,1-.49.163h0A.826.826,0,0,1,447.3,444.941Zm-2.968-3.864h0a.806.806,0,0,1,.147-1.141h0a.81.81,0,0,1,1.141.144h0a.814.814,0,0,1-.146,1.143h0a.81.81,0,0,1-.49.163h0A.809.809,0,0,1,444.336,441.077Zm-3.016-3.832a.806.806,0,0,1,.13-1.141h0a.81.81,0,0,1,1.141.132h0a.808.808,0,0,1-.132,1.141h0a.739.739,0,0,1-.5.178h0A.792.792,0,0,1,441.32,437.244Zm-3.066-3.782a.793.793,0,0,1,.113-1.141h0a.793.793,0,0,1,1.141.113h0a.8.8,0,0,1-.113,1.143h0a.757.757,0,0,1-.522.178h0A.8.8,0,0,1,438.254,433.462Zm-3.114-3.751a.8.8,0,0,1,.1-1.141h0a.8.8,0,0,1,1.139.1h0a.8.8,0,0,1-.1,1.141h0a.8.8,0,0,1-.522.195h0A.773.773,0,0,1,435.14,429.711Zm-3.181-3.7h0a.825.825,0,0,1,.082-1.158h0a.827.827,0,0,1,1.158.1h0a.8.8,0,0,1-.082,1.141h0a.843.843,0,0,1-.538.195h0A.843.843,0,0,1,431.959,426.011Zm-3.21-3.669h0a.839.839,0,0,1,.065-1.158h0a.826.826,0,0,1,1.158.082h0a.82.82,0,0,1-.065,1.141h0a.821.821,0,0,1-.555.211h0A.832.832,0,0,1,428.748,422.342Zm-3.261-3.619a.823.823,0,0,1,.048-1.158h0a.825.825,0,0,1,1.158.065h0a.819.819,0,0,1-.048,1.141h0a.823.823,0,0,1-.555.214h0A.787.787,0,0,1,425.488,418.723Zm-3.311-3.587a.8.8,0,0,1,.034-1.141h0a.822.822,0,0,1,1.158.033h0a.822.822,0,0,1-.05,1.156h0a.788.788,0,0,1-.555.211h0A.778.778,0,0,1,422.177,415.136Zm-3.359-3.523a.822.822,0,0,1,.017-1.158h0a.824.824,0,0,1,1.158.019h0a.835.835,0,0,1-.017,1.156h0a.876.876,0,0,1-.57.228h0A.828.828,0,0,1,418.818,411.613Zm-3.407-3.5h0a.8.8,0,0,1,0-1.143h0a.81.81,0,0,1,1.158,0h0a.822.822,0,0,1-.017,1.158h0a.813.813,0,0,1-.57.228h0A.825.825,0,0,1,415.41,408.109Zm-3.456-3.441h0a.822.822,0,0,1,0-1.158h0a.8.8,0,0,1,1.156,0h0a.817.817,0,0,1,0,1.141h0a.827.827,0,0,1-.586.245h0A.877.877,0,0,1,411.955,404.669Zm-3.491-3.407h0a.806.806,0,0,1-.031-1.143h0a.809.809,0,0,1,1.158-.031h0a.81.81,0,0,1,.017,1.158h0a.776.776,0,0,1-.589.243h0A.772.772,0,0,1,408.464,401.261Zm-3.537-3.359a.79.79,0,0,1-.048-1.141h0a.808.808,0,0,1,1.158-.05h0a.824.824,0,0,1,.031,1.158h0a.845.845,0,0,1-.586.262h0A.809.809,0,0,1,404.927,397.9Zm-3.587-3.311a.8.8,0,0,1-.065-1.141h0a.826.826,0,0,1,1.158-.065h0a.808.808,0,0,1,.048,1.158h0a.79.79,0,0,1-.6.262h0A.754.754,0,0,1,401.339,394.591ZM397.7,391.33h0a.835.835,0,0,1-.065-1.156h0a.84.84,0,0,1,1.158-.067h0a.841.841,0,0,1,.065,1.158h0a.84.84,0,0,1-.62.276h0A.887.887,0,0,1,397.7,391.33Zm-3.667-3.211h0a.826.826,0,0,1-.084-1.158h0a.806.806,0,0,1,1.143-.082h0a.824.824,0,0,1,.1,1.156h0a.842.842,0,0,1-.62.279h0A.82.82,0,0,1,394.036,388.12Zm-3.719-3.164h0a.827.827,0,0,1-.1-1.158h0a.821.821,0,0,1,1.156-.1h0a.839.839,0,0,1,.1,1.158h0a.855.855,0,0,1-.635.277h0A.914.914,0,0,1,390.317,384.956Zm-3.749-3.131a.805.805,0,0,1-.115-1.141h0a.809.809,0,0,1,1.141-.115h0a.794.794,0,0,1,.115,1.143h0a.832.832,0,0,1-.637.31h0A.749.749,0,0,1,386.568,381.825Zm-3.8-3.064a.808.808,0,0,1-.132-1.141h0a.81.81,0,0,1,1.141-.132h0a.794.794,0,0,1,.132,1.141h0a.825.825,0,0,1-.637.31h0A.837.837,0,0,1,382.769,378.761Zm-3.832-3.018a.809.809,0,0,1-.147-1.139h0a.808.808,0,0,1,1.141-.149h0a.81.81,0,0,1,.147,1.141h0a.809.809,0,0,1-.651.31h0A.8.8,0,0,1,378.937,375.743Zm-3.881-2.965a.849.849,0,0,1-.163-1.158h0a.822.822,0,0,1,1.141-.147h0a.806.806,0,0,1,.163,1.139h0a.829.829,0,0,1-.651.327h0A.935.935,0,0,1,375.056,372.778Zm-3.912-2.919a.827.827,0,0,1-.18-1.141h0a.812.812,0,0,1,1.141-.18h0a.827.827,0,0,1,.178,1.141h0a.83.83,0,0,1-.666.327h0A.863.863,0,0,1,371.144,369.858Zm-3.962-2.869a.823.823,0,0,1-.18-1.141h0a.813.813,0,0,1,1.141-.2h0a.829.829,0,0,1,.18,1.141h0a.807.807,0,0,1-.668.343h0A.861.861,0,0,1,367.182,366.989Zm-4-2.823a.827.827,0,0,1-.195-1.141h0a.827.827,0,0,1,1.141-.195h0a.827.827,0,0,1,.195,1.141h0a.8.8,0,0,1-.668.341h0A.845.845,0,0,1,363.186,364.166Zm-4.027-2.754h0a.831.831,0,0,1-.212-1.141h0a.794.794,0,0,1,1.125-.211h0a.811.811,0,0,1,.228,1.125h0a.806.806,0,0,1-.685.358h0A.809.809,0,0,1,359.159,361.412Zm-4.059-2.706a.818.818,0,0,1-.228-1.141h0a.812.812,0,0,1,1.125-.23h0a.814.814,0,0,1,.228,1.127h0a.785.785,0,0,1-.685.375h0A.859.859,0,0,1,355.1,358.706Zm-4.109-2.66a.819.819,0,0,1-.245-1.125h0a.8.8,0,0,1,1.125-.26h0a.8.8,0,0,1,.245,1.125h0a.789.789,0,0,1-.685.375h0A.886.886,0,0,1,350.992,356.047Zm-4.126-2.607h0a.805.805,0,0,1-.262-1.125h0a.8.8,0,0,1,1.11-.262h0a.821.821,0,0,1,.276,1.125h0a.847.847,0,0,1-.7.392h0A.821.821,0,0,1,346.866,353.439Zm-4.174-2.544a.8.8,0,0,1-.276-1.125h0a.816.816,0,0,1,1.108-.276h0a.8.8,0,0,1,.276,1.125h0a.822.822,0,0,1-.685.389h0A.784.784,0,0,1,342.692,350.895Zm-4.207-2.494a.807.807,0,0,1-.293-1.108h0a.806.806,0,0,1,1.108-.3h0a.806.806,0,0,1,.3,1.11h0a.812.812,0,0,1-.7.408h0A.771.771,0,0,1,338.485,348.4Zm-4.239-2.429h0a.828.828,0,0,1-.31-1.125h0a.805.805,0,0,1,1.108-.3h0a.807.807,0,0,1,.31,1.11h0a.81.81,0,0,1-.7.408h0A.888.888,0,0,1,334.246,345.971Zm-4.272-2.381a.829.829,0,0,1-.327-1.108h0a.832.832,0,0,1,1.11-.327h0a.818.818,0,0,1,.325,1.108h0a.825.825,0,0,1-.716.425h0A.88.88,0,0,1,329.974,343.59Zm-4.3-2.331a.808.808,0,0,1-.327-1.11h0a.8.8,0,0,1,1.093-.325h0a.8.8,0,0,1,.341,1.093h0a.831.831,0,0,1-.718.438h0A.868.868,0,0,1,325.67,341.259Zm-4.337-2.268a.811.811,0,0,1-.343-1.091h0a.813.813,0,0,1,1.093-.358h0a.829.829,0,0,1,.358,1.108h0a.838.838,0,0,1-.733.44h0A.829.829,0,0,1,321.333,338.991Zm-4.354-2.2a.84.84,0,0,1-.375-1.11h0a.834.834,0,0,1,1.093-.358h0a.818.818,0,0,1,.375,1.093h0a.823.823,0,0,1-.733.454h0A.963.963,0,0,1,316.979,336.792Zm-4.4-2.153h0a.823.823,0,0,1-.375-1.093h0a.815.815,0,0,1,1.093-.373h0a.792.792,0,0,1,.375,1.074h0a.825.825,0,0,1-.735.457h0A.949.949,0,0,1,312.577,334.639Zm-4.419-2.1h0a.8.8,0,0,1-.392-1.074h0a.821.821,0,0,1,1.076-.408h0v.017h0a.8.8,0,0,1,.392,1.076h0a.8.8,0,0,1-.733.473h0A.862.862,0,0,1,308.158,332.535Zm-4.45-2.038a.815.815,0,0,1-.408-1.074h0a.818.818,0,0,1,1.076-.408h0a.806.806,0,0,1,.408,1.076h0a.8.8,0,0,1-.735.49h0A.853.853,0,0,1,303.708,330.5Zm-4.467-1.973a.791.791,0,0,1-.425-1.058h0a.809.809,0,0,1,1.06-.442h0a.818.818,0,0,1,.425,1.076h0a.8.8,0,0,1-.752.488h0A.679.679,0,0,1,299.241,328.524Zm-4.517-1.908a.841.841,0,0,1-.44-1.076h0a.822.822,0,0,1,1.076-.423h0a.822.822,0,0,1,.44,1.062h0a.837.837,0,0,1-.766.5h0A1.131,1.131,0,0,1,294.724,326.616Zm-4.534-1.858h0a.817.817,0,0,1-.438-1.06h0a.809.809,0,0,1,1.06-.457h0a.836.836,0,0,1,.454,1.06h0a.823.823,0,0,1-.764.521h0A1.241,1.241,0,0,1,290.19,324.759Zm-4.547-1.793a.826.826,0,0,1-.459-1.06h0a.8.8,0,0,1,1.045-.459h0a.8.8,0,0,1,.473,1.045h0a.832.832,0,0,1-.769.522h0A.941.941,0,0,1,285.643,322.966Zm-4.582-1.744a.8.8,0,0,1-.473-1.045h0a.8.8,0,0,1,1.043-.471h0a.816.816,0,0,1,.49,1.043h0a.842.842,0,0,1-.766.538h0A.988.988,0,0,1,281.061,321.222Zm-4.6-1.665a.823.823,0,0,1-.488-1.043h0a.784.784,0,0,1,1.026-.488h0v-.017h0a.83.83,0,0,1,.5,1.043h0a.815.815,0,0,1-.766.555h0A.813.813,0,0,1,276.462,319.557Zm-4.63-1.613h0a.828.828,0,0,1-.5-1.045h0a.824.824,0,0,1,1.043-.5h0a.819.819,0,0,1,.5,1.043h0a.843.843,0,0,1-.781.555h0A.846.846,0,0,1,271.832,317.944Zm-4.647-1.55a.83.83,0,0,1-.521-1.026h0a.8.8,0,0,1,1.028-.523h0a.793.793,0,0,1,.521,1.028h0a.8.8,0,0,1-.766.553h0A1.4,1.4,0,0,1,267.184,316.394Zm-4.662-1.5h0a.813.813,0,0,1-.538-1.012h0a.812.812,0,0,1,1.026-.538h0a.815.815,0,0,1,.538,1.012h0a.831.831,0,0,1-.783.586h0A.67.67,0,0,1,262.523,314.895Zm-4.664-1.42h0a.811.811,0,0,1-.555-1.009h0a.826.826,0,0,1,1.012-.555h0a.821.821,0,0,1,.553,1.028h0a.836.836,0,0,1-.781.57h0A.505.505,0,0,1,257.859,313.475Zm-4.7-1.353h0a.815.815,0,0,1-.555-1.009h0a.787.787,0,0,1,.995-.555h.017a.812.812,0,0,1,.553.995h0a.815.815,0,0,1-.781.6h0A1.07,1.07,0,0,1,253.163,312.122Zm-4.7-1.3h0a.815.815,0,0,1-.586-1h0a.821.821,0,0,1,1.012-.57h0a.814.814,0,0,1,.57.995h0a.818.818,0,0,1-.8.6h0A.436.436,0,0,1,248.466,310.819Zm-4.727-1.223a.813.813,0,0,1-.588-.995h0a.815.815,0,0,1,.995-.589h0a.823.823,0,0,1,.586.995h0a.82.82,0,0,1-.8.6h0A.875.875,0,0,1,243.739,309.6Zm-4.729-1.175h0a.821.821,0,0,1-.6-.995h0a.8.8,0,0,1,.978-.586h0a.81.81,0,0,1,.6.978h0a.819.819,0,0,1-.8.62h0A.585.585,0,0,1,239.011,308.422Zm-4.76-1.11a.817.817,0,0,1-.62-.976h0a.8.8,0,0,1,.978-.605h0v-.015h0a.826.826,0,0,1,.618.978h0a.815.815,0,0,1-.8.635h0A.705.705,0,0,1,234.25,307.312Zm-4.762-1.043a.813.813,0,0,1-.635-.961h0a.824.824,0,0,1,.978-.637h0a.818.818,0,0,1,.62.961h0a.821.821,0,0,1-.8.653h0A.549.549,0,0,1,229.488,306.269Zm-4.777-.978a.829.829,0,0,1-.651-.961h0a.814.814,0,0,1,.961-.637h0a.8.8,0,0,1,.637.947h0a.807.807,0,0,1-.8.668h0A.44.44,0,0,1,224.711,305.291Zm-141.606-1.42a.829.829,0,0,1,.668-.961h0a.814.814,0,0,1,.947.653h0a.83.83,0,0,1-.653.961h0a.438.438,0,0,1-.147.017h0A.836.836,0,0,1,83.105,303.871Zm136.812.507a.828.828,0,0,1-.653-.961h0a.815.815,0,0,1,.947-.653h0a.816.816,0,0,1,.653.947h0a.816.816,0,0,1-.8.668h-.147ZM87.93,302.993a.815.815,0,0,1,.653-.947h0a.826.826,0,0,1,.945.668h0a.812.812,0,0,1-.668.945h0c-.034,0-.082.019-.13.019h0A.824.824,0,0,1,87.93,302.993Zm127.177.519a.806.806,0,0,1-.668-.945h0a.812.812,0,0,1,.947-.651h0a.811.811,0,0,1,.668.928h0a.822.822,0,0,1-.815.685h0A.4.4,0,0,1,215.107,303.513ZM92.741,302.177a.826.826,0,0,1,.685-.93h0a.813.813,0,0,1,.93.67h0a.816.816,0,0,1-.668.944h-.132A.82.82,0,0,1,92.741,302.177Zm117.556.555h0a.824.824,0,0,1-.685-.93h0a.814.814,0,0,1,.93-.685h0a.822.822,0,0,1,.685.93h0a.8.8,0,0,1-.8.685H210.3Zm-112.714-1.3a.8.8,0,0,1,.685-.913h0a.813.813,0,0,1,.93.685h0a.831.831,0,0,1-.7.93h-.113A.811.811,0,0,1,97.583,301.427ZM205.471,302h0a.842.842,0,0,1-.7-.93h0a.825.825,0,0,1,.93-.685h0a.815.815,0,0,1,.685.93h0a.807.807,0,0,1-.8.7h0C205.536,302.013,205.5,302,205.471,302Zm-103.045-1.257a.807.807,0,0,1,.7-.913h0a.82.82,0,0,1,.913.7h0a.822.822,0,0,1-.7.913h0a.275.275,0,0,1-.115.017h0A.822.822,0,0,1,102.427,300.742Zm98.2.6v-.017a.808.808,0,0,1-.7-.9h0a.834.834,0,0,1,.913-.718h0a.81.81,0,0,1,.7.915h0a.81.81,0,0,1-.8.716h-.113Zm-93.361-1.223a.836.836,0,0,1,.716-.913h0a.844.844,0,0,1,.913.716h0a.826.826,0,0,1-.716.915h-.1A.826.826,0,0,1,107.268,300.122Zm88.517.62h0a.825.825,0,0,1-.716-.913h0a.8.8,0,0,1,.913-.7h0a.818.818,0,0,1,.716.9h0a.824.824,0,0,1-.815.716h-.1Zm-83.658-1.175a.813.813,0,0,1,.733-.9h0a.818.818,0,0,1,.9.716h0a.821.821,0,0,1-.733.9h-.082A.827.827,0,0,1,112.127,299.567Zm78.817.637a.81.81,0,0,1-.733-.9h0a.811.811,0,0,1,.9-.718h0a.818.818,0,0,1,.733.882h0a.825.825,0,0,1-.815.733h-.082ZM117,299.063a.8.8,0,0,1,.735-.88h0a.819.819,0,0,1,.88.733h0a.812.812,0,0,1-.735.9H117.8A.8.8,0,0,1,117,299.063Zm69.083.67a.822.822,0,0,1-.75-.882h0a.833.833,0,0,1,.9-.75h0a.835.835,0,0,1,.735.9h0a.806.806,0,0,1-.817.735h-.065Zm-64.224-1.1a.814.814,0,0,1,.75-.863h0a.8.8,0,0,1,.882.735h0a.81.81,0,0,1-.752.878h-.065A.817.817,0,0,1,121.861,298.637Zm59.349.687a.8.8,0,0,1-.733-.882h0a.791.791,0,0,1,.865-.733h0v-.017h0a.831.831,0,0,1,.75.88h0a.819.819,0,0,1-.817.752h-.065Zm-54.473-1.045a.811.811,0,0,1,.766-.865h0a.817.817,0,0,1,.863.75h0a.8.8,0,0,1-.75.865h0c-.015.017-.031.017-.065.017h0A.831.831,0,0,1,126.737,298.279Zm49.615.7a.83.83,0,0,1-.766-.863h0a.832.832,0,0,1,.865-.769h0a.819.819,0,0,1,.767.865h0a.819.819,0,0,1-.815.767h-.05Zm-44.725-1.009a.807.807,0,0,1,.766-.85h0a.786.786,0,0,1,.848.767h0a.808.808,0,0,1-.767.865h-.031A.812.812,0,0,1,131.627,297.971Zm39.849.731a.814.814,0,0,1-.766-.846h0a.819.819,0,0,1,.848-.783h0a.824.824,0,0,1,.783.865h0a.831.831,0,0,1-.815.764h-.05Zm-34.974-.961a.819.819,0,0,1,.783-.846h0a.8.8,0,0,1,.848.781h0a.816.816,0,0,1-.783.848h-.031A.836.836,0,0,1,136.5,297.741Zm30.1.75a.826.826,0,0,1-.781-.846h0a.809.809,0,0,1,.848-.783h0a.808.808,0,0,1,.781.848h0a.821.821,0,0,1-.815.781H166.6Zm-25.223-.928a.809.809,0,0,1,.8-.834h0a.817.817,0,0,1,.831.785h0a.818.818,0,0,1-.783.846h-.031A.825.825,0,0,1,141.377,297.563Zm20.35.767h0a.81.81,0,0,1-.8-.832h0a.834.834,0,0,1,.848-.8h0a.82.82,0,0,1,.783.848h0a.788.788,0,0,1-.8.783h-.031Zm-15.458-.882a.793.793,0,0,1,.8-.815h0a.819.819,0,0,1,.833.8h0a.835.835,0,0,1-.817.832h0A.817.817,0,0,1,146.269,297.448Zm10.582.8a.8.8,0,0,1-.8-.834h0a.8.8,0,0,1,.817-.8h0a.794.794,0,0,1,.8.817h0a.8.8,0,0,1-.8.815h-.017Zm-5.69-.848a.813.813,0,0,1,.8-.815h0a.843.843,0,0,1,.831.815h0a.817.817,0,0,1-.815.815h0A.806.806,0,0,1,151.162,297.4Z" transform="translate(-83.092 -296.585)" fill="#24377c"/>
    </g>
    <path id="Path_27" data-name="Path 27" d="M582.354,769.229c47-65.809,75.859-154.944,75.859-253.086,0-202.508-122.875-366.674-274.45-366.674S109.312,313.634,109.312,516.143c0,98.142,28.861,187.277,75.86,253.086Z" transform="translate(-54.4 -149.469)" fill="#d4eeff" opacity="0.9"/>
    <path id="Path_28" data-name="Path 28" d="M642.739,361.706l-84.084,84.115c-1.026,52.061-8.658,176.416-47.005,211.57-1.028,1.141-2.1,2.2-3.2,3.2-1.028,1.141-2.1,2.2-3.2,3.2-1.028,1.141-2.1,2.2-3.2,3.2-1.028,1.141-2.1,2.184-3.2,3.2-1.028,1.125-2.1,2.184-3.179,3.2-1.045,1.125-2.121,2.184-3.2,3.194-1.045,1.127-2.119,2.186-3.2,3.2-1.045,1.125-2.119,2.184-3.2,3.179-1.045,1.141-2.119,2.2-3.2,3.2-1.043,1.141-2.1,2.2-3.2,3.2-1.043,1.141-2.1,2.2-3.2,3.2-1.043,1.141-2.1,2.2-3.2,3.2-1.043,1.141-2.1,2.2-3.2,3.2-1.043,1.141-2.1,2.2-3.2,3.194-1.043,1.141-2.1,2.2-3.2,3.2-1.043,1.141-2.1,2.2-3.2,3.2-1.043,1.141-2.1,2.2-3.2,3.2-1.043,1.141-2.1,2.2-3.2,3.2-.6.67-1.24,1.3-1.858,1.925.243,6.718.488,13.271.685,19.631h-267.8C138.174,670.646,109.3,581.509,109.3,483.371a484.815,484.815,0,0,1,8.689-91.91L296,213.447A38.5,38.5,0,0,1,312.356,202.7c22.81-8.249,39.784-4.433,48.492-1.06.375-.358.764-.7,1.19-1.043a23.508,23.508,0,0,1,3.2-3.2,23.51,23.51,0,0,1,3.2-3.2,23.511,23.511,0,0,1,3.2-3.2,23.518,23.518,0,0,1,3.2-3.2,22.544,22.544,0,0,1,16.385-8.348c20.739-1.4,19.485,29.887,19.485,29.887s10.94-9.881,18.815,2.184c4.924,7.55,1.615,16.827-5.25,22.484a24.506,24.506,0,0,1-3.2,3.2,24.508,24.508,0,0,1-3.2,3.2c-.457.538-.928,1.076-1.435,1.6a62.073,62.073,0,0,1,5.544,15.962c4.681,22.142,20.136,37.86,17.92,40.974a60.924,60.924,0,0,1-6.425,6.947c-.651.685-1.336,1.37-1.973,2,.423,1.973,6.327,30.523-3.326,41.2a14.577,14.577,0,0,1-2.251,2.023,13.227,13.227,0,0,1-.944,1.173,14.693,14.693,0,0,1-2.251,2.023,13.249,13.249,0,0,1-.945,1.173,14.771,14.771,0,0,1-2.249,2.023,11.262,11.262,0,0,1-.947,1.156,14.044,14.044,0,0,1-2.249,2.04,13.863,13.863,0,0,1-.93,1.156,14.92,14.92,0,0,1-2.266,2.04,13.449,13.449,0,0,1-.93,1.156,15.862,15.862,0,0,1-2.266,2.04,13.047,13.047,0,0,1-.93,1.156,15.858,15.858,0,0,1-2.266,2.04,13.043,13.043,0,0,1-.93,1.156,16.8,16.8,0,0,1-2.266,2.04,13.042,13.042,0,0,1-.93,1.156,16.793,16.793,0,0,1-2.266,2.04,13.046,13.046,0,0,1-.93,1.156,15.747,15.747,0,0,1-2.266,2.023,11.22,11.22,0,0,1-.93,1.173,14.442,14.442,0,0,1-1.141,1.125c.048.442.1.882.163,1.321a17.115,17.115,0,0,1,1.973-1.793,946575.722,946575.722,0,0,1,6.392-6.392,473286.731,473286.731,0,0,1,6.392-6.392,19.067,19.067,0,0,1,3.2-3.2,946566.685,946566.685,0,0,1,6.392-6.392,473291.252,473291.252,0,0,1,6.392-6.392,236645.626,236645.626,0,0,0,6.392-6.392,14555.118,14555.118,0,0,1,6.389-6.392,17.931,17.931,0,0,1,3.2-3.179,17.348,17.348,0,0,1,3.181-3.2,14555.392,14555.392,0,0,0,6.39-6.392,236643.931,236643.931,0,0,1,6.392-6.392,315525.744,315525.744,0,0,0,6.392-6.392,473286.733,473286.733,0,0,0,6.392-6.392,19.226,19.226,0,0,1,3.2-3.2,19.13,19.13,0,0,1,3.2-3.194,18.458,18.458,0,0,1,3.2-3.2,18.529,18.529,0,0,1,3.2-3.2,18.462,18.462,0,0,1,3.2-3.2,18.463,18.463,0,0,1,3.2-3.2,18.464,18.464,0,0,1,3.2-3.2,16.456,16.456,0,0,1,9.261-6.115l.343,1.55,5.037-1.125-.341-1.55,21.244-4.679,1.615-1.615c.115-.228.228-.49.327-.7l.457-.1,2.413-2.429c.115-.212.228-.457.327-.668l.44-.1,2.446-2.461c.113-.214.212-.425.31-.637l.423-.082,2.479-2.511c.1-.195.195-.406.293-.6l.392-.082,2.526-2.528c.1-.195.2-.39.279-.586l.375-.082,2.559-2.559c.082-.18.18-.375.262-.555l.358-.065,2.593-2.609c.082-.178.163-.358.245-.5l.325-.082,2.643-2.641c.08-.163.147-.327.228-.473l.308-.082,2.674-2.674c.065-.147.147-.31.212-.44l.3-.065,2.706-2.723c.065-.132.13-.279.195-.408l.279-.065,2.739-2.756a4.035,4.035,0,0,1,.178-.375l.245-.065,2.773-2.787c.065-.115.113-.228.178-.343l.228-.048,2.8-2.838a2.457,2.457,0,0,0,.163-.31l.214-.048,2.836-2.869c.05-.082.1-.2.147-.279l.18-.048,2.886-2.886c.048-.082.082-.18.13-.262l.163-.031,2.528-2.544C606.657,262.67,629.011,309.482,642.739,361.706Z" transform="translate(-54.414 -116.693)" fill="#24377c" opacity="0.05" style="mix-blend-mode: multiply;isolation: isolate"/>
    <path id="Path_29" data-name="Path 29" d="M304.937,273.032c-1.688,27.443-4.511,35.441-.982,39.91s25.405,16.23,35.757,8.7-7.347-48.613-7.347-48.613Z" transform="translate(156.734 -14.262)" fill="#eecaad"/>
    <path id="Path_30" data-name="Path 30" d="M306.419,282.161c3.353,14.134,6.369,25.585,20.477,26.909,7.8.731,9.037-.8,10.191-7.585-2.84-13.512-9.269-28.452-9.269-28.452l-19.772,1.807C308.065,274.908,306.4,282.09,306.419,282.161Z" transform="translate(161.282 -14.262)" fill="#24377c"/>
    <path id="Path_31" data-name="Path 31" d="M314.625,259.6c-15.493,6.655-15.462,21.009-6.266,33.219s11.9,25.728,22.607,26.584,27.03-6.5,31.767-26.073S314.625,259.6,314.625,259.6Z" transform="translate(156.539 -28.959)" fill="#eecaad"/>
    <g id="Group_26" data-name="Group 26" transform="translate(433.414 82.724)">
      <circle id="Ellipse_1" data-name="Ellipse 1" cx="37.974" cy="37.974" r="37.974" transform="translate(75.852 62.385) rotate(-22.204)" fill="#24377c"/>
      <path id="Path_32" data-name="Path 32" d="M326.947,249.44c5.139,23.33,33.445,61.11,30.71,72.3s-25.623,17.7-30.576,12.76c-12.676-12.635-21.738-85.357-21.738-85.357Z" transform="translate(-273.31 -123.129)" fill="#24377c"/>
      <path id="Path_33" data-name="Path 33" d="M304.577,227.313c-10.727,2.478-16.856,16.008-13.7,30.333s14.408,24.027,25.181,21.768Z" transform="translate(-290.047 -147.014)" fill="#7bcaff"/>
      <rect id="Rectangle_11" data-name="Rectangle 11" width="5.166" height="50.176" transform="matrix(0.977, -0.215, 0.215, 0.977, 14.87, 81.849)" fill="#24377c"/>
      <rect id="Rectangle_12" data-name="Rectangle 12" width="26.591" height="53.349" transform="translate(19.574 79.188) rotate(-12.427)" fill="#7bcaff"/>
      <path id="Path_34" data-name="Path 34" d="M312.077,262.961c-.04.008-.08.019-.119.029h0l5.4,24.5,5.4,24.5h0c.04-.01.08-.015.121-.025,47.8-10.459,76.731,26.419,91.552,38.134l-17.652-80.111L379.123,189.88C370.6,206.739,359.85,252.359,312.077,262.961Z" transform="translate(-266.073 -187.974)" fill="#fff"/>
      <rect id="Rectangle_13" data-name="Rectangle 13" width="8.853" height="164.064" transform="translate(113.05 1.905) rotate(-12.428)" fill="#7bcaff"/>
    </g>
    <g id="Group_28" data-name="Group 28" transform="translate(474.069 216.118)">
      <g id="Group_27" data-name="Group 27">
        <path id="Path_35" data-name="Path 35" d="M334.455,268.375c-8.406,3.954-23.018,7.049-24.81,3.236s9.908-13.093,18.314-17.047,10.333-1.085,12.128,2.729S342.861,264.421,334.455,268.375Z" transform="translate(-309.46 -252.666)" fill="#eecaad"/>
        <path id="Path_36" data-name="Path 36" d="M340.193,284.231c-7.286,3.426-19.946,6.109-21.5,2.8s8.586-11.347,15.872-14.773,8.953-.94,10.509,2.364S347.477,280.8,340.193,284.231Z" transform="translate(-299.533 -233.022)" fill="#eecaad"/>
        <path id="Path_37" data-name="Path 37" d="M338.61,274.76c-9.158,4.306-25.072,7.68-27.026,3.525s10.792-14.262,19.95-18.57,11.257-1.181,13.21,2.974S347.766,270.452,338.61,274.76Z" transform="translate(-307.355 -247.214)" fill="#eecaad"/>
        <path id="Path_38" data-name="Path 38" d="M341.707,281.34c-9.158,4.308-25.074,7.682-27.028,3.527s10.794-14.264,19.952-18.57,11.254-1.183,13.208,2.972S350.863,277.035,341.707,281.34Z" transform="translate(-303.969 -240.012)" fill="#eecaad"/>
      </g>
    </g>
    <path id="Path_39" data-name="Path 39" d="M319.679,263.621c6.861,6.266,15.292,18.593,12.45,21.707s-15.883-4.172-22.743-10.436-4.94-9.139-2.1-12.251S312.821,257.358,319.679,263.621Z" transform="translate(159.399 -28.958)" fill="#eecaad"/>
    <path id="Path_40" data-name="Path 40" d="M304.981,287.352s10.819,18.211,40.285,14.988l-.013-2.741s4.44.161,2.85,9.834-47.217,2.741-47.862-7.093,2.521-18.563,5.049-18.23Z" transform="translate(154.429 -2.15)" fill="#f2f1ef"/>
    <path id="Path_41" data-name="Path 41" d="M356.958,544.346a30.544,30.544,0,0,1-17.037-3.675c-28.521-14.689-53.985-70.056-72.915-124.425-21.185-60.775-34.2-120.274-34.2-120.274l36.568,17.82s35.619,36.025,83.307,104.092c0,0,8.392-118.144,18.494-126.571,1.347-1.129,11.866,7.9,23.862,10.484,18.147,3.9,27.229-3.384,28.358-1.51C424.5,302.16,425.412,537.994,356.958,544.346Z" transform="translate(80.73 5.634)" fill="#7f95ce"/>
    <path id="Path_42" data-name="Path 42" d="M322.051,516.673c-28.521-14.689-53.985-70.056-72.915-124.425l19.256-79.1S312.9,382.967,322.051,516.673Z" transform="translate(98.6 29.631)" fill="#24377c"/>
    <path id="Path_43" data-name="Path 43" d="M399.022,628.994h-240.4c4.289-105.818,23.757-270.887,100.291-340.948,4.842-4.436,10.5-7.615,16.157-10.419l77.644,43.908a67.837,67.837,0,0,1,7.7,12.752h.015C386.809,389.118,395.892,532.225,399.022,628.994Z" transform="translate(-0.44 -9.234)" fill="#7f95ce"/>
    <path id="Path_44" data-name="Path 44" d="M308,334.287c-53.137,1.451-88.308-31.34-101.491-46.237a88.506,88.506,0,0,1,16.157-10.423l77.648,43.9A67.941,67.941,0,0,1,308,334.287Z" transform="translate(51.962 -9.234)" fill="#f2f1ef"/>
    <g id="Group_29" data-name="Group 29" transform="translate(222.865 62.729)">
      <path id="Path_45" data-name="Path 45" d="M214.229,315.686s18.4-31.363,16.253-64.559c-1.332-20.276,17.347.689,32.054,20.036,3.022,4,5.9,7.9,8.375,11.374,5.187,7.282,11.541-.595,11.541-.595-.262,2.381-1.141,9.21-1.761,15.9-.524,5.472-.857,10.873-.547,13.73,2.189,19.466,8.71,44.165,11.732,48.021C295.875,364.657,228.744,348.691,214.229,315.686Z" transform="translate(-162.461 -110.021)" fill="#eecaad"/>
      <path id="Path_46" data-name="Path 46" d="M320.1,239.122c15.148.961,28.268-15.51,20.4-27.581s-18.815-2.193-18.815-2.193,1.254-31.282-19.487-29.881-23.826,25.393-23.826,25.393-21.058-14.427-55.02-2.163-24.176,49.491-24.176,49.491-20.463,19.238,2.006,50.389,35.334,32.6,34.1,53.376,26.886,13.707,23.682-10.549,1.47-28.04,1.47-28.04l17.045,2.364Z" transform="translate(-188.258 -179.422)" fill="#24377c"/>
      <path id="Path_47" data-name="Path 47" d="M267.371,269.857c-.262,2.381-1.141,9.21-1.761,15.9-40.523-10.639-37.55-31.175-37.55-31.34v-.524a56.635,56.635,0,0,1,19.395,5.187,62.124,62.124,0,0,1,8.209,4.521C260.852,270.881,267.371,269.857,267.371,269.857Z" transform="translate(-147.38 -97.937)" fill="#24377c"/>
      <path id="Path_48" data-name="Path 48" d="M241.618,274.9s-7.675-21.665-22.293-12.794.256,49.1,20.4,38.071c0,0-3.868,12.53,17.95,21.284s46.557,13.849,56.551,2.8,3.292-41.315,3.292-41.315,6.222-5.707,8.434-8.831-13.252-18.831-17.925-40.967-18.469-40.57-43.755-25.579c-21.1,12.5-16.572,54.9-14.494,68.6a4.377,4.377,0,0,1-4.132,4.787l-2.844.279Z" transform="translate(-163.313 -154.582)" fill="#eecaad"/>
      <path id="Path_49" data-name="Path 49" d="M270.674,249.454c1.713,2.932-.465,7.391-4.863,9.96s-9.353,2.272-11.064-.66-6.894-12.7-2.494-15.269S268.963,246.522,270.674,249.454Z" transform="translate(-122.747 -110.039)" fill="#333"/>
      <path id="Path_50" data-name="Path 50" d="M260.83,229.315c.972,4.413-.465,8.48-3.208,9.085s-5.757-2.482-6.729-6.894.463-8.48,3.208-9.085S259.858,224.9,260.83,229.315Z" transform="translate(-122.675 -132.454)" fill="#333"/>
      <path id="Path_51" data-name="Path 51" d="M243.954,231.305a21.52,21.52,0,0,1,2.595-8.23,20.313,20.313,0,0,1,5.977-6.89,15.45,15.45,0,0,1,9.292-2.972,10.762,10.762,0,0,1,8.3,4.115,1.343,1.343,0,0,1-.211,1.885,1.373,1.373,0,0,1-.54.26l-.189.042c-2.984.662-5.152.561-7.146.953a13.6,13.6,0,0,0-5.671,1.669c-3.659,2.04-7.02,5.828-10.151,9.933l-.069.09a1.219,1.219,0,0,1-2.184-.854Z" transform="translate(-129.941 -142.451)" fill="#24377c"/>
      <path id="Path_52" data-name="Path 52" d="M189.655,207.42a37.9,37.9,0,0,1,3.807,4.117l3.135,3.935a28.514,28.514,0,0,0,3.089,3.455,12.91,12.91,0,0,0,4.3,2.7,6.618,6.618,0,0,1-6.138.559,11.31,11.31,0,0,1-4.957-3.734,15.709,15.709,0,0,1-2.731-5.187A13.018,13.018,0,0,1,189.655,207.42Z" transform="translate(-189.51 -148.786)" fill="#24377c"/>
      <path id="Path_53" data-name="Path 53" d="M189.7,219.992a7.356,7.356,0,0,1,2.442-4.356,9.957,9.957,0,0,1,9.506-2.13,8.069,8.069,0,0,1,4.111,2.785c-1.715.5-3.106.651-4.423.944-1.309.2-2.49.5-3.673.735s-2.36.547-3.638.884Z" transform="translate(-189.307 -142.589)" fill="#24377c"/>
    </g>
    <path id="Path_54" data-name="Path 54" d="M217.217,480.01c-.846,25.158-.961,50.316-.031,75.443.276,5.755.6,11.51,1.012,17.25h-4.616q-.465-8.535-.75-17.1c-.555-25.273-.082-50.53,1.141-75.736q2.1-37.809,6.245-75.426c2.787-25.06,6.113-50.071,10.371-74.936a.528.528,0,0,1,.6-.423.521.521,0,0,1,.423.6c-3.9,24.88-6.848,49.924-9.261,74.984S218.245,454.852,217.217,480.01Z" transform="translate(58.622 47.057)" fill="#24377c"/>
    <path id="Path_55" data-name="Path 55" d="M215.027,330.774v.031c-5.25,24.62-9.768,49.42-13.86,74.268q-6.091,37.3-10.63,74.758-4.426,37.492-6.8,75.066c-.325,5.87-.6,11.723-.831,17.594H171.72q.685-9.2,1.516-18.392,3.767-37.838,9.522-75.328,5.871-37.47,13.3-74.628c4.991-24.766,10.387-49.418,16.517-73.924a1.231,1.231,0,0,1,1.516-.913A1.251,1.251,0,0,1,215.027,330.774Z" transform="translate(13.889 47.269)" fill="#24377c"/>
  </g>
</svg>
